<svg xmlns="http://www.w3.org/2000/svg" version="1.1" xmlns:xlink="http://www.w3.org/1999/xlink" width="512" height="512" x="0" y="0" viewBox="0 0 115 115" style="enable-background:new 0 0 512 512" xml:space="preserve"><g><path d="M56.621 103.854a1.25 1.25 0 0 0 .287-1.744c-4.043-5.636-5.355-11.84-3.696-17.47a1.25 1.25 0 0 0-2.398-.707c-1.882 6.386-.439 13.359 4.063 19.634a1.25 1.25 0 0 0 1.744.287zM47.7 103.023a1.499 1.499 0 0 0-.048-2.12c-4.024-3.848-8.406-6.515-13.023-7.925a1.5 1.5 0 1 0-.877 2.87c4.166 1.272 8.145 3.702 11.828 7.223a1.498 1.498 0 0 0 2.12-.048zM65.236 32.573c-4.988-1.697-9.891-.607-14.574 3.236-.427.35-.488.982-.138 1.408.35.425.978.49 1.408.14 4.169-3.425 8.312-4.371 12.66-2.892a.992.992 0 0 0 1.268-.624.999.999 0 0 0-.624-1.268zM36.878 49.455a1 1 0 0 0 .95-1.048c-.027-.552-.514-.993-1.048-.95-1.555.076-2.654.817-3.012 2.034-.558 1.888.865 4.448 3.54 6.372a1 1 0 1 0 1.169-1.623c-2.291-1.648-3.012-3.438-2.791-4.183.107-.366.508-.569 1.192-.602zM66.553 40.567a.751.751 0 0 0-.625-.857 7.738 7.738 0 0 1-2.088-.656c.115-.27.22-.553.299-.865a1 1 0 1 0-1.94-.488c-.369 1.469-1.529 3.112-7.226 2.777a1 1 0 1 0-.117 1.996c1.153.069 2.01.061 2.741.017a7.514 7.514 0 0 1-.224 1.4.75.75 0 0 0 1.457.359c.178-.72.26-1.355.267-1.932.315-.054.626-.119.929-.201.238.494.463 1.08.678 1.79a.75.75 0 0 0 1.436-.435c-.221-.73-.458-1.35-.71-1.892.168-.086.331-.178.49-.279 1.193 1.443 1.054 2.016 1.767 2.016a.75.75 0 0 0 .651-1.12 12.762 12.762 0 0 0-1.25-1.835 9.25 9.25 0 0 0 2.607.83.75.75 0 0 0 .858-.625zM68.598 46.89c-2.408.739-2.138 2.718 0 3.496 1.786.255.849-.704.757-1.442-.112-.888 1.437-2.285-.757-2.054z" fill="#e2769d" opacity="1" data-original="#000000"></path><path d="M15.9 46.275c.09.407-.385 1.311-.5 1.751-1.861 7.138-1.577 16.182 3.828 21.74 1.978 2.033 4.882 3.689 7.781 3.599.442 2.156 1.784 2.65 3.67 1.584h1.73c.264-.098.512-.213.748-.34-1.225 4.28-3.268 8.197-6.117 10.621-5.758 5.36-9.913 11.268-12.705 18.059a1.5 1.5 0 0 0 2.775 1.14c2.623-6.381 6.54-11.944 11.924-16.959 6.749-5.74 9.526-18.282 8.121-27.095.875.108 1.972.26 2.59-.26.705-.594.583-1.531-.026-2.125-.71-.23-1.462-.23-2.185-.403-7.998-1.917-7.402-14.078-1.594-12.308 2.153.656 3.242.992 5.558-.186 2.841-1.445 4.827-4.89 4.106-8.105 5.786-4.654 8.158-10.638 8.86-18.06 4.016 1.377 8.596 3.47 10.918 7.223-.026.36.085.725.366.994 3.172 3.031 1.948 6.583 3.1 11.88.2.958.648 1.834 1.3 2.54 1.627 1.738 3.127 3.09 4.596 4.109a6.39 6.39 0 0 1-1.87 1.742 2.461 2.461 0 0 0-.785 3.55c.589.86 1.275 1.57 1.938 2.21-3.556.762-4.467 2.682-5.47 3.468-.363.275-.82.496-1.357.656-1.194.35-1.193 2.043.02 2.393a2.39 2.39 0 0 1 1.238.787c1.54 1.66 2.872 2.228 4.34 2.25-.404 1.575-.7 3.407-.892 5.556-.137 1.505-1.438 2.62-2.904 2.509-5.852-.471-11.982-1.542-18.22-3.183-1.16-.308-2.191-1.041-2.905-2.066-1.102-1.582-1.99-3.381-2.713-5.498a1.249 1.249 0 1 0-2.365.807c.799 2.342 1.789 4.344 3.026 6.12 1.052 1.51 2.584 2.594 4.318 3.054 2.11.555 4.206 1.04 6.287 1.466-2.573 1.906-4.197 5.127-4.836 9.64a1.249 1.249 0 1 0 2.474.351c.75-5.292 2.9-8.301 6.55-9.216 1.977.326 7.147 1.034 8.602 1.034 2.648 0 4.927-2.068 5.177-4.793.227-2.548.602-4.586 1.136-6.232 1.172 1.456 2.633 2.998 4.43 4.68a1.945 1.945 0 0 0 .411 1.859c.584.653 1.162 1.288 1.735 1.911-2.48 1.553-.547 4.7-1.843 8.205-1.512 4.072-4.694 7.653-3.94 16.19.245 2.782.08 5.527-.495 8.16a1.5 1.5 0 0 0 2.932.64c.638-2.931.824-5.98.552-9.063-.931-10.542 4.726-12.035 4.448-19.585a20.463 20.463 0 0 1 0-1.698c2.805 4.512-1.32 9.4.534 15.087a1.496 1.496 0 0 0 2.902-.7 9.501 9.501 0 0 0 2.583-1.478c2.272-1.796 5.589-7.388 7.034-9.925.804-1.414-.954-1.523-1.47-7.179a1.5 1.5 0 0 0-1.147-1.322c-1.554-.371-3.87-1.296-4.192-2.868 2.78 1.015 5.564 1.554 6.73 3.273 1.621 2.346 3.002 4.73 3.695 6.38.254.606.244 1.337-.026 2.003-1.498 3.674-5.166 8.018-8.42 11.873-.829.982-.097 2.452 1.148 2.452.433 0 .863-.184 1.163-.539 1.685-1.996 3.483-4.126 5.07-6.27-.023 3.105-3.047 5.56-8.996 11.854-3.132 3.341-2.856 7.072-3.113 8.138a1.5 1.5 0 0 0 2.976.375c.263-1.149-.017-3.96 2.323-6.457 8.295-8.787 11.037-10.29 9.374-17.796 1.3-2.27 2.304-4.323 1.266-6.794-.766-1.829-2.26-4.418-3.986-6.914-.717-1.057-1.757-1.92-3-2.488-2.256-1.047-4.707-1.669-5.679-2.108-1.387-.633-3.042.17-3.424 1.672-.05.2-.067.405-.089.61a30.509 30.509 0 0 0-1.016-.81c-.581-.437-1.35-.477-1.993-.167a34.061 34.061 0 0 0-5.212-5.005 1.722 1.722 0 0 0-1.809-.172c-.27.14-.507.297-.73.462-.073-.714-.285-1.523-.718-2.431.374-.318 1.014-.9 1.203-1.34.482-1.143.24-2.447-.868-3.507-.603-.576-1.23-1.209-1.712-1.93a8.914 8.914 0 0 0 2.617-2.434 2.49 2.49 0 0 0-.594-3.46c-1.324-.945-2.702-2.19-4.208-3.802a2.839 2.839 0 0 1-.686-1.356c-1.04-4.788.033-8.76-3.102-12.407a1.54 1.54 0 0 0 .15-.415c.532-3.062.377-5.228-1.56-8.17-2.605-3.956-9.154-7.68-13.687-4.877-.935-3.397-5.335-3.789-8.234-3.66-12.62 1.57-21.83 10.12-25.605 22.241-.883 2.838-.229 2.305-1.863 4.967-1.43 2.33-1.98 4.935-1.056 7.529-.85-.575-1.58-.959-1.806-2.047-.882-4.245 4.045-6.246 3.82-7.679-.125-.798-.867-1.156-1.61-.972-5.352 1.328-8.397 13.201-.84 13.26zM32.13 72.1c.236-.11.483-.13.738-.165.126-.024.105-.033.238.02l-.06.116c-.21.172-.37.222-.637.269a.898.898 0 0 1-.307-.145zm38.503-13.988a.495.495 0 0 1 .59-.4c.781.149 1.522.167 2.226.08.123.309.225.639.281.979-.842.121-1.74.1-2.705-.084a.5.5 0 0 1-.392-.575zM86.794 84.87c.127-2.586 1.184-5.12.934-8.33a108.264 108.264 0 0 0 3.552 3.329c-1.798 2.722-2.721 4.064-4.486 5zm5.985-12.41c.256 1.209.595 2.31 1.038 3.3-.493.85-.972 1.64-1.446 2.404a126.48 126.48 0 0 1-5.677-5.471c-.523-1.059-1.114-1.924-2.182-2.268-.873-.923-1.757-1.87-2.658-2.857l2.947-2.322c2.575 1.935 4.756 4.334 7.978 7.213zm-15.05-12.283a32.04 32.04 0 0 1 4.65 4.471l-1.077.824c-1.785-1.671-3.231-3.195-4.358-4.615.188-.258.45-.482.786-.68zM52.958 15.965c.606-.493 1.402-.646 2.15-.769 2.567-.26 4.913.685 6.527 2.741-1.773-1.161-4.583-1.747-6.622-1.824-.673-.025-1.452.12-2.104-.027zM34.549 37.587c-1.339.714-2.598 1.565-3.87 2.388l-.048-.05c.33-2.69 12.483-8.185 14.973-9.952l.05.028c-1.818 3.402-7.869 5.862-11.105 7.586zm13.069-17.544c-6.53 9.1-8.906 7.954-16.746 13.336l-.084-.014c.158-1.656 7.557-6.255 13.165-12.227 1.923-2.048 3.204-3.547 5.744-4.84l.101.042c.109.652-1.735 3.083-2.18 3.703zm-7.72-7.96c1.424-.577 2.991-.87 4.511-1.058 2.353-.39 4.68.698 6.259 2.404-1.865-1.027-2.294-1.113-4.266-1.794-2.01.177-3.36-.161-5.486.331-.218.05-2.242.614-1.018.118zm3.575 2.59c1.112-.113 1.937-.03 2.93.523-1.274.184-2.32.774-3.474 1.308-5.511 2.547-11.384 6.816-14.694 11.971-.416.633-.824 1.27-1.226 1.912 1.691-7.394 9.009-14.556 16.464-15.714zM18.58 50.619c.048.024 2.167 2.848 2.506 3.24-2.437 1.575-1.816 3.486.387 5.163l.33.244c-.303.216-.497.47-.717.764-2.463-2.243-3-6.29-2.506-9.411zm1.056 12.848c.963 1.242 2.134 2.234 3.232 3.344.163.81.475 1.571.774 2.338-3.038-1.397-4.528-4.795-5.41-7.823.428.468.937 1.538 1.404 2.14z" fill="#e2769d" opacity="1" data-original="#000000"></path></g></svg>
